<svg xmlns="http://www.w3.org/2000/svg" xmlns:xlink="http://www.w3.org/1999/xlink" width="24" height="24" preserveAspectRatio="xMidYMid meet" viewBox="0 0 24 24" style="-ms-transform: rotate(360deg); -webkit-transform: rotate(360deg); transform: rotate(360deg);"><path d="M13.75 13a1.25 1.25 0 1 1 2.5 0a1.25 1.25 0 0 1-2.5 0M22 12v10H2V12C2 6.5 6.5 2 12 2s10 4.5 10 10M4 12c0 4.41 3.59 8 8 8s8-3.59 8-8c0-.79-.12-1.55-.33-2.26A9.974 9.974 0 0 1 9.26 5.77c-.98 2.39-2.85 4.32-5.21 5.37c-.05.28-.05.57-.05.86m5 2.25a1.25 1.25 0 1 0 0-2.5a1.25 1.25 0 0 0 0 2.5z" fill="#FF7C7C"/><rect x="0" y="0" width="24" height="24" fill="rgba(0, 0, 0, 0)" /></svg>